<?xml version="1.0" encoding="UTF-8"?>
<svg width="200px" height="200px" viewBox="0 0 200 200" version="1.1" xmlns="http://www.w3.org/2000/svg" xmlns:xlink="http://www.w3.org/1999/xlink">
    <title>binance-coin-seeklogo.com</title>
    <g id="Page-1" stroke="none" stroke-width="1" fill="none" fill-rule="evenodd">
        <g id="binance-coin-seeklogo.com" fill="#F3BA2F" fill-rule="nonzero">
            <path d="M61.1345462,84.0083966 L99.9590164,45.184926 L138.803479,84.0283886 L161.394442,61.437425 L99.9590164,0 L38.5445822,61.417433 L61.1345462,84.0083966 M0.000599760096,99.9569172 L22.5922631,77.3652539 L45.182427,99.9555178 L22.5909636,122.546981 L0.000599760096,99.9569172 Z M61.1345462,115.911635 L99.9590164,154.735106 L138.802479,115.892643 L161.405438,138.471611 L161.394442,138.483607 L99.9590164,199.920032 L38.542583,138.504598 L38.5105958,138.472611 L61.1345462,115.911635 M154.739404,99.9693123 L177.331068,77.3777489 L199.921232,99.9679128 L177.329668,122.559576 L154.739404,99.9693123 Z" id="Shape"></path>
            <polyline id="Path" points="122.872851 99.9480208 122.882847 99.9480208 99.9590164 77.0241903 83.0177929 93.9654138 83.0167933 93.9654138 81.0705718 95.9126349 77.0561775 99.9280288 77.0241903 99.9590164 77.0561775 99.9920032 99.9590164 122.895842 122.882847 99.9720112 122.893842 99.9590164 122.872851 99.9480208"></polyline>
        </g>
    </g>
</svg>