<?xml version="1.0" encoding="UTF-8"?>
<svg width="200px" height="200px" viewBox="0 0 200 200" version="1.1" xmlns="http://www.w3.org/2000/svg" xmlns:xlink="http://www.w3.org/1999/xlink">
    <title>okex-seeklogo.com</title>
    <g id="Page-1" stroke="none" stroke-width="1" fill="none" fill-rule="evenodd">
        <g id="okex-seeklogo.com" fill-rule="nonzero">
            <line x1="0.497512438" y1="199.338308" x2="0.497512438" y2="0" id="Path" fill="#DBD9D9"></line>
            <path d="M89.4378109,88.9402985 C96.4878951,90.6666533 103.850413,90.6666533 110.900498,88.9402985 C114.916012,72.610948 127.665674,59.861286 143.995025,55.8457711 C148.442534,37.6557206 141.192036,18.609118 125.774341,7.98118397 C110.356647,-2.64675002 89.9766863,-2.64675002 74.558992,7.98118397 C59.1412976,18.609118 51.8907991,37.6557206 56.3383085,55.8457711 C72.6712924,59.8566262 85.4245008,72.6079177 89.4378109,88.9402985 L89.4378109,88.9402985 Z" id="Path" fill="#7ABDF7"></path>
            <path d="M110.900498,110.393035 C103.850413,108.66668 96.4878951,108.66668 89.4378109,110.393035 C85.4222961,126.722385 72.6726341,139.472047 56.3432836,143.487562 C51.8957743,161.677613 59.1462728,180.724215 74.5639671,191.352149 C89.9816614,201.980083 110.361622,201.980083 125.779316,191.352149 C141.197011,180.724215 148.447509,161.677613 144,143.487562 C127.667016,139.476707 114.913808,126.725416 110.900498,110.393035 L110.900498,110.393035 Z" id="Path" fill="#0D74F5"></path>
            <path d="M154.726368,54.5472637 C151.111979,54.5467773 147.510654,54.9810745 144,55.840796 C139.988774,72.1697685 127.23942,84.919122 110.910448,88.9303483 C109.184093,95.9804324 109.184093,103.342951 110.910448,110.393035 C127.239593,114.407126 139.988363,127.157814 144,143.487562 C160.914228,147.618959 178.696198,141.649418 189.691188,128.148688 C200.686178,114.647957 202.931815,96.0256316 195.461403,80.2981878 C187.990992,64.5707439 172.137843,54.5451979 154.726368,54.5373134 L154.726368,54.5472637 Z" id="Path" fill="#4494F7"></path>
            <path d="M89.4378109,110.393035 C91.1641658,103.342951 91.1641658,95.9804324 89.4378109,88.9303483 C73.1080623,84.9187117 60.3573751,72.1699414 56.3432836,55.840796 C38.153233,51.3932867 19.1066304,58.6437852 8.47869641,74.0614795 C-2.14923758,89.4791739 -2.14923758,109.859135 8.47869641,125.276829 C19.1066304,140.694523 38.153233,147.945022 56.3432836,143.497512 C60.3535346,127.163181 73.1046856,114.408196 89.4378109,110.393035 L89.4378109,110.393035 Z" id="Path" fill="#005CF4"></path>
            <path d="M110.900498,88.9402985 C127.229848,84.9247837 139.97951,72.1751217 143.995025,55.8457711 C127.665674,59.861286 114.916012,72.610948 110.900498,88.9402985 L110.900498,88.9402985 Z" id="Path" fill="#186EF9"></path>
            <path d="M110.900498,110.393035 C114.912971,126.724099 127.66396,139.475089 143.995025,143.487562 C139.97951,127.158212 127.229848,114.40855 110.900498,110.393035 L110.900498,110.393035 Z" id="Path" fill="#0246F2"></path>
            <path d="M89.4378109,88.9402985 C85.4222961,72.610948 72.6726341,59.861286 56.3432836,55.8457711 C60.3587984,72.1751217 73.1084604,84.9247837 89.4378109,88.9402985 Z" id="Path" fill="#0046F8"></path>
            <path d="M89.4378109,110.393035 C73.1084604,114.40855 60.3587984,127.158212 56.3432836,143.487562 C72.6726341,139.472047 85.4222961,126.722385 89.4378109,110.393035 L89.4378109,110.393035 Z" id="Path" fill="#0729F1"></path>
            <path d="M89.4378109,88.9402985 C96.4878951,90.6666533 103.850413,90.6666533 110.900498,88.9402985 C114.916012,72.610948 127.665674,59.861286 143.995025,55.8457711 C148.442534,37.6557206 141.192036,18.609118 125.774341,7.98118397 C110.356647,-2.64675002 89.9766863,-2.64675002 74.558992,7.98118397 C59.1412976,18.609118 51.8907991,37.6557206 56.3383085,55.8457711 C72.6712924,59.8566262 85.4245008,72.6079177 89.4378109,88.9402985 L89.4378109,88.9402985 Z" id="Path" fill="#7ABDF7"></path>
            <path d="M110.900498,110.393035 C103.850413,108.66668 96.4878951,108.66668 89.4378109,110.393035 C85.4222961,126.722385 72.6726341,139.472047 56.3432836,143.487562 C51.8957743,161.677613 59.1462728,180.724215 74.5639671,191.352149 C89.9816614,201.980083 110.361622,201.980083 125.779316,191.352149 C141.197011,180.724215 148.447509,161.677613 144,143.487562 C127.667016,139.476707 114.913808,126.725416 110.900498,110.393035 L110.900498,110.393035 Z" id="Path" fill="#0D74F5"></path>
            <path d="M154.726368,54.5472637 C151.111979,54.5467773 147.510654,54.9810745 144,55.840796 C139.988774,72.1697685 127.23942,84.919122 110.910448,88.9303483 C109.184093,95.9804324 109.184093,103.342951 110.910448,110.393035 C127.239593,114.407126 139.988363,127.157814 144,143.487562 C160.914228,147.618959 178.696198,141.649418 189.691188,128.148688 C200.686178,114.647957 202.931815,96.0256316 195.461403,80.2981878 C187.990992,64.5707439 172.137843,54.5451979 154.726368,54.5373134 L154.726368,54.5472637 Z" id="Path" fill="#4494F7"></path>
            <path d="M89.4378109,110.393035 C91.1641658,103.342951 91.1641658,95.9804324 89.4378109,88.9303483 C73.1080623,84.9187117 60.3573751,72.1699414 56.3432836,55.840796 C38.153233,51.3932867 19.1066304,58.6437852 8.47869641,74.0614795 C-2.14923758,89.4791739 -2.14923758,109.859135 8.47869641,125.276829 C19.1066304,140.694523 38.153233,147.945022 56.3432836,143.497512 C60.3535346,127.163181 73.1046856,114.408196 89.4378109,110.393035 L89.4378109,110.393035 Z" id="Path" fill="#005CF4"></path>
            <path d="M110.900498,88.9402985 C127.229848,84.9247837 139.97951,72.1751217 143.995025,55.8457711 C127.665674,59.861286 114.916012,72.610948 110.900498,88.9402985 L110.900498,88.9402985 Z" id="Path" fill="#186EF9"></path>
            <path d="M110.900498,110.393035 C114.912971,126.724099 127.66396,139.475089 143.995025,143.487562 C139.97951,127.158212 127.229848,114.40855 110.900498,110.393035 L110.900498,110.393035 Z" id="Path" fill="#0246F2"></path>
            <path d="M89.4378109,88.9402985 C85.4222961,72.610948 72.6726341,59.861286 56.3432836,55.8457711 C60.3587984,72.1751217 73.1084604,84.9247837 89.4378109,88.9402985 Z" id="Path" fill="#0046F8"></path>
            <path d="M89.4378109,110.393035 C73.1084604,114.40855 60.3587984,127.158212 56.3432836,143.487562 C72.6726341,139.472047 85.4222961,126.722385 89.4378109,110.393035 L89.4378109,110.393035 Z" id="Path" fill="#0729F1"></path>
        </g>
    </g>
</svg>