<?xml version="1.0" encoding="UTF-8"?>
<svg width="80px" height="80px" viewBox="0 0 80 80" version="1.1" xmlns="http://www.w3.org/2000/svg" xmlns:xlink="http://www.w3.org/1999/xlink">
    <title>globe</title>
    <g id="Page-1" stroke="none" stroke-width="1" fill="none" fill-rule="evenodd">
        <g id="globe" fill="#45FFF4" fill-rule="nonzero">
            <path d="M40,0 C17.944375,0 0,17.944375 0,40 C0,62.055625 17.944375,80 40,80 C62.055625,80 80,62.055625 80,40 C80,17.944375 62.055625,0 40,0 Z M40,73.3332813 C30.919375,73.3332813 22.684375,69.6742188 16.6667187,63.7648438 L16.6667187,58.3332813 C16.6667187,56.7479687 17.3764062,55.7275 18.1967187,54.5457813 C19.0414062,53.3301562 20,51.9515625 20,50 C20,46.82125 17.1304687,46.4990625 15.5875,46.3265625 C14.4839062,46.2028125 13.4423437,46.085625 12.845,45.4882813 C12.3925,45.0357813 11.94,44.2139063 11.4615625,43.3446875 C10.5114062,41.6159375 9.2234375,39.3298438 6.77140625,37.9296875 C7.849375,20.515 22.3182812,6.66671875 40,6.66671875 C40.9148438,6.66671875 41.8142187,6.73140625 42.7107812,6.8040625 C42.5282812,6.92390625 42.3046875,7.0053125 42.155,7.155 C41.8310938,7.47890625 41.65375,7.92328125 41.6667187,8.3821875 C41.6814062,8.83953125 41.883125,9.2725 42.225,9.5784375 C42.8239062,10.110625 42.9395312,10.3792187 42.9623437,10.3792187 C42.9248437,10.4589063 42.6189062,10.9814062 40.913125,11.8473438 C38.0973437,13.2746875 34.8454687,16.19625 34.3620312,19.2367188 C34.140625,20.616875 34.5410937,21.8978125 35.4882812,22.8451563 C35.8007812,23.1576563 36.2239062,23.3334375 36.6667187,23.3334375 C38.98125,23.3334375 40.7698437,22.4773437 42.5,21.6504688 C44.2757813,20.8023437 45.95375,20 48.3332812,20 C54.8746875,20 60,21.4648438 60,23.3332813 C60,24.0184375 59.7867187,24.2284375 59.7054687,24.3065625 C58.8867187,25.1121875 56.09875,25.0601563 53.6475,25.0226563 C52.998125,25.01125 52.3340625,24.9998438 51.6667187,24.9998438 C49.404375,24.9998438 48.7028125,24.669375 47.890625,24.2853125 C46.945,23.839375 45.8740625,23.333125 43.3332812,23.333125 C40.5859375,23.333125 35.4801562,23.8295313 32.1548437,27.1546875 C29.4351562,29.8728125 29.723125,33.1246875 29.9120312,35.2748438 C29.9559375,35.7696875 30,36.2384375 30,36.6664063 C30,39.9492188 33.3545312,41.6664063 36.6667187,41.6664063 C41.7610937,41.6664063 46.1654687,42.616875 46.6667187,43.333125 C46.6667187,45.1984375 47.2217187,46.4728125 47.6676562,47.4948438 C48.03875,48.349375 48.3332812,49.023125 48.3332812,49.9996875 C48.3332812,50.7548437 48.2095312,50.9160938 47.8759375,51.3457813 C47.2395312,52.1726562 46.6665625,53.0726563 46.6665625,54.9996875 C46.6665625,58.5071875 50.0439062,62.3548438 50.4279687,62.7829688 C50.7485937,63.1378125 51.2010937,63.333125 51.6665625,63.333125 C51.8048437,63.333125 51.9432812,63.316875 52.08,63.2810938 C53.0614062,63.02875 61.6665625,60.660625 61.6665625,54.9998437 C61.6665625,53.2257812 62.2182812,52.7471875 63.0548437,52.02125 C63.8751562,51.3082813 64.9998437,50.3334375 64.9998437,48.333125 C64.9998437,46.996875 67.37125,43.5479687 69.5685937,41.1179687 C69.8795312,40.7745313 70.0340625,40.315625 69.9934375,39.8532813 C69.9528125,39.3910938 69.7215625,38.96625 69.3554687,38.6829688 C68.0598437,37.67875 64.4823437,34.4089063 63.2845312,31.2367187 C63.9632812,31.5915625 64.8128125,32.169375 65.4882812,32.8448437 C66.0432812,33.403125 66.7871875,33.67 67.6334375,33.6359375 C68.9832812,33.5589062 70.586875,32.4923437 72.1065625,31.1620312 C72.8839062,33.9817187 73.3334375,36.9364063 73.3334375,40 C73.3334375,58.3804687 58.3804687,73.3332813 40,73.3332813 Z" id="Shape"></path>
        </g>
    </g>
</svg>